<?xml version="1.0" encoding="UTF-8"?>
<svg width="23px" height="18px" viewBox="0 0 23 18" version="1.1" xmlns="http://www.w3.org/2000/svg" xmlns:xlink="http://www.w3.org/1999/xlink">
    <!-- Generator: Sketch 46.2 (44496) - http://www.bohemiancoding.com/sketch -->
    <title>dashboard icon</title>
    <desc>Created with Sketch.</desc>
    <defs></defs>
    <g id="Welcome" stroke="none" stroke-width="1" fill="none" fill-rule="evenodd">
        <g id="Account-Settings" transform="translate(-296.000000, -25.000000)" fill="#6B6B6B">
            <g id="Header">
                <g id="dashboard-icon" transform="translate(296.000000, 25.000000)">
                    <g id="Fill-1">
                        <path d="M1.96856071,4.66609816 L11.4833143,8.27267244 L20.997546,4.66609816 L11.4833143,1.05952388 L1.96856071,4.66609816 Z M11.4833143,9.33219631 C11.4191136,9.33219631 11.3549129,9.32094654 11.2943659,9.29793565 L0.333269525,5.14319071 C0.132316092,5.06648773 0.000260978485,4.87728704 0.000260978485,4.66609816 C0.000260978485,4.45490928 0.132316092,4.26570858 0.333269525,4.1890056 L11.2943659,0.0342606659 C11.4159819,-0.0112497709 11.5501248,-0.0112497709 11.6717408,0.0342606659 L22.6328372,4.1890056 C22.8337906,4.26570858 22.9663677,4.45490928 22.9663677,4.66609816 C22.9663677,4.87728704 22.8337906,5.06648773 22.6328372,5.14319071 L11.6717408,9.29793565 C11.6111938,9.32094654 11.5469931,9.33219631 11.4833143,9.33219631 L11.4833143,9.33219631 Z"></path>
                        <path d="M11.4830533,13.806537 C11.4193746,13.806537 11.3551739,13.7952872 11.2946269,13.7722763 L0.333530504,9.61753141 C0.13257707,9.54082843 0,9.35162774 0,9.14043886 C0,8.92924997 0.13257707,8.74004928 0.333530504,8.6633463 L5.81407869,6.58622951 C6.08288653,6.48447022 6.38509962,6.61486529 6.48949101,6.8782122 C6.59336045,7.14207046 6.45973946,7.43814398 6.19093162,7.53990327 L1.96829973,9.14043886 L11.4830533,12.7470131 L20.997807,9.14043886 L16.7751751,7.53990327 C16.5063672,7.43814398 16.3727462,7.14207046 16.4766157,6.8782122 C16.5810071,6.61537664 16.8821762,6.48498157 17.152028,6.58622951 L22.6325762,8.6633463 C22.8335296,8.74004928 22.9661067,8.92924997 22.9661067,9.14043886 C22.9661067,9.35162774 22.8335296,9.54082843 22.6325762,9.61753141 L11.6714798,13.7722763 C11.6109328,13.7952872 11.5467321,13.806537 11.4830533,13.806537" id="Fill-4"></path>
                        <path d="M11.4830533,17.8973628 C11.4193746,17.8973628 11.3551739,17.886113 11.2946269,17.8631021 L0.333530504,13.7083572 C0.13257707,13.6316542 0,13.4424535 0,13.2312646 C0,13.0200758 0.13257707,12.8308751 0.333530504,12.7541721 L5.55310021,10.7726783 C5.82243,10.6704077 6.12412113,10.8013141 6.22851253,11.0651724 C6.33238196,11.3280079 6.19876098,11.6240815 5.92995314,11.7268635 L1.96777778,13.2307533 L11.4830533,16.8378389 L20.9983289,13.2307533 L17.0361536,11.7268635 C16.7673457,11.6240815 16.6337247,11.3280079 16.7375942,11.0651724 C16.8419856,10.8013141 17.1441986,10.6709191 17.4130065,10.7726783 L22.6325762,12.7541721 C22.8335296,12.8308751 22.9661067,13.0200758 22.9661067,13.2312646 C22.9661067,13.4424535 22.8335296,13.6316542 22.6325762,13.7083572 L11.6714798,17.8631021 C11.6109328,17.886113 11.5467321,17.8973628 11.4830533,17.8973628" id="Fill-6"></path>
                    </g>
                </g>
            </g>
        </g>
    </g>
</svg>