<?xml version="1.0" encoding="UTF-8"?>
<svg width="14px" height="8px" viewBox="0 0 14 8" version="1.1" xmlns="http://www.w3.org/2000/svg" xmlns:xlink="http://www.w3.org/1999/xlink">
    <!-- Generator: Sketch 46.2 (44496) - http://www.bohemiancoding.com/sketch -->
    <title>Path 3 Copy</title>
    <desc>Created with Sketch.</desc>
    <defs></defs>
    <g id="Welcome" stroke="none" stroke-width="1" fill="none" fill-rule="evenodd">
        <g id="Dropdown" transform="translate(-1247.000000, -541.000000)" fill="#D3D3D3">
            <g id="Group-2" transform="translate(175.000000, 215.000000)">
                <g id="Group" transform="translate(0.000000, 260.000000)">
                    <g id="Votes" transform="translate(1065.000000, 11.000000)">
                        <path d="M8.64682168,62.9825585 L19.276253,62.9825585 L19.276253,62.9825585 C19.6904666,62.9825585 20.026253,62.646772 20.026253,62.2325585 C20.026253,62.0509311 19.9603433,61.8754744 19.8407619,61.7387673 L14.5121659,55.6470419 L14.5121659,55.6470419 C14.2394526,55.3352722 13.7656355,55.3036108 13.4538659,55.5763241 C13.4282587,55.5987234 13.4042052,55.6228391 13.3818723,55.6485042 L8.08103694,61.7402297 L8.08103694,61.7402297 C7.80913126,62.052704 7.84201862,62.5264375 8.15449291,62.7983432 C8.29100489,62.9171318 8.46586243,62.9825585 8.64682168,62.9825585 Z" id="Path-3-Copy" transform="translate(13.964370, 58.991279) rotate(-180.000000) translate(-13.964370, -58.991279) "></path>
                    </g>
                </g>
            </g>
        </g>
    </g>
</svg>