<?xml version="1.0" encoding="UTF-8"?>
<svg width="12px" height="12px" viewBox="0 0 12 12" version="1.1" xmlns="http://www.w3.org/2000/svg" xmlns:xlink="http://www.w3.org/1999/xlink">
    <!-- Generator: Sketch 46.2 (44496) - http://www.bohemiancoding.com/sketch -->
    <title>Shape</title>
    <desc>Created with Sketch.</desc>
    <defs></defs>
    <g id="Welcome" stroke="none" stroke-width="1" fill="none" fill-rule="evenodd">
        <g id="Dropdown" transform="translate(-1161.000000, -86.000000)" fill-rule="nonzero" fill="#ADB6BE">
            <g id="settings-work-tool" transform="translate(1161.000000, 86.000000)">
                <path d="M11.9624508,5.33376999 C11.9434746,5.16508719 11.7467923,5.03832952 11.5767212,5.03832952 C11.0268588,5.03832952 10.5389258,4.71547475 10.3342957,4.2161683 C10.1252453,3.70476205 10.2600431,3.10834467 10.669839,2.73244723 C10.7988323,2.61453001 10.8145044,2.41713809 10.7063179,2.28002192 C10.4248902,1.9226537 10.105019,1.59984358 9.75576821,1.3200748 C9.61900586,1.21032829 9.41834964,1.22559814 9.29975976,1.35690998 C8.94211484,1.75298863 8.29969346,1.9001954 7.80327694,1.69307007 C7.28667871,1.47576483 6.96091375,0.952303431 6.99279371,0.390399499 C7.00328641,0.213903174 6.87429313,0.0604455806 6.69832825,0.0399518258 C6.25013352,-0.0118853189 5.79800961,-0.0134926722 5.34847539,0.0363799295 C5.17451975,0.0555788719 5.04552647,0.20541992 5.05137559,0.37968381 C5.07093221,0.936051303 4.74123806,1.45035972 4.22977456,1.65985143 C3.73929646,1.86019017 3.10138472,1.71423355 2.74445419,1.32168215 C2.62648941,1.19237951 2.42909262,1.17648457 2.29166053,1.28359681 C1.93205101,1.56573197 1.6049912,1.88880998 1.3209738,2.24323139 C1.21019763,2.38101729 1.22649481,2.58073094 1.35678294,2.69927325 C1.77439255,3.07744777 1.90923496,3.67904439 1.69228156,4.19634427 C1.48515112,4.68953385 0.973017875,5.00738797 0.386721303,5.00738797 C0.19646849,5.0012711 0.0609563357,5.12896639 0.0401495272,5.30193547 C-0.0126265407,5.75270877 -0.013251638,6.21200999 0.0375598386,6.66644449 C0.0564020557,6.83584167 0.259067515,6.96148312 0.431013909,6.96148312 C0.953505911,6.94813316 1.45514646,7.27161301 1.66558098,7.78368899 C1.87534576,8.29509524 1.74050335,8.89115543 1.33008236,9.26736541 C1.20171417,9.38528263 1.18541699,9.58236201 1.29360347,9.71947818 C1.57239684,10.0745693 1.89231268,10.397692 2.24281364,10.6797825 C2.38029039,10.7905559 2.58032151,10.7749289 2.69949183,10.643617 C3.05847626,10.2465561 3.70085298,10.0996172 4.19530491,10.3071444 C4.71319798,10.5237799 5.03896295,11.0471967 5.00708299,11.6094131 C4.99667958,11.7859988 5.12629796,11.9397243 5.30154844,11.9599055 C5.53082518,11.98665 5.76148607,12 5.99277205,12 C6.21231514,12 6.43190287,11.9879449 6.65144596,11.963522 C6.82544624,11.9443231 6.95435023,11.794482 6.9485011,11.6199056 C6.92836404,11.0638506 7.25863864,10.5495422 7.76943239,10.3404077 C8.26321457,10.1387295 8.89844733,10.2863381 9.25542251,10.6784877 C9.37405704,10.8075224 9.57006967,10.8231048 9.70826082,10.7163498 C10.0672006,10.4348844 10.3935907,10.1120742 10.6789475,9.75667055 C10.7896791,9.61919719 10.7740516,9.419171 10.6430938,9.30067334 C10.2254841,8.92249882 10.089972,8.3208129 10.3069254,7.80387021 C10.5108857,7.31724399 11.0039981,6.99050478 11.5343931,6.99050478 L11.6086011,6.99242467 C11.7806368,7.00639972 11.9389204,6.87388237 11.9597718,6.69827901 C12.0126372,6.24710387 12.0132623,5.78820449 11.9624508,5.33376999 Z M6.00951573,8.01403165 C4.90586188,8.01403165 4.00813293,7.11632482 4.00813293,6.01269817 C4.00813293,4.90911617 4.90586188,4.01136469 6.00951573,4.01136469 C7.11312493,4.01136469 8.01085388,4.90911617 8.01085388,6.01269817 C8.01085388,7.11632482 7.11312493,8.01403165 6.00951573,8.01403165 Z" id="Shape"></path>
            </g>
        </g>
    </g>
</svg>