<?xml version="1.0" encoding="UTF-8"?>
<svg width="23px" height="23px" viewBox="0 0 23 23" version="1.1" xmlns="http://www.w3.org/2000/svg" xmlns:xlink="http://www.w3.org/1999/xlink">
    <!-- Generator: Sketch 46.2 (44496) - http://www.bohemiancoding.com/sketch -->
    <title>facebook</title>
    <desc>Created with Sketch.</desc>
    <defs></defs>
    <g id="Welcome" stroke="none" stroke-width="1" fill="none" fill-rule="evenodd">
        <g id="Account-Settings" transform="translate(-433.000000, -212.000000)" fill-rule="nonzero" fill="#475993">
            <g id="facebook" transform="translate(433.000000, 212.000000)">
                <path d="M19.900625,0 L3.09931871,0 C1.38764632,0 0,1.38757987 0,3.09929597 L0,19.9005915 C0,21.6123076 1.38759005,22.9998875 3.09931871,22.9998875 L11.3856428,22.9998875 L11.3997652,14.780972 L9.26447888,14.780972 C8.98698338,14.780972 8.7617574,14.5565917 8.76068838,14.2790982 L8.75044828,11.6298008 C8.74937926,11.3507882 8.9752804,11.1240447 9.25429505,11.1240447 L11.3856991,11.1240447 L11.3856991,8.56415061 C11.3856991,5.59341761 13.2000538,3.97583099 15.8501584,3.97583099 L18.0247734,3.97583099 C18.3030004,3.97583099 18.5286202,4.2013929 18.5286202,4.47967406 L18.5286202,6.71357525 C18.5286202,6.99174389 18.3031691,7.21724953 18.0250547,7.21741832 L16.6905219,7.21803722 C15.249312,7.21803722 14.9702411,7.9028812 14.9702411,8.90792293 L14.9702411,11.124101 L18.1370769,11.124101 C18.4388224,11.124101 18.6729381,11.3875848 18.6373791,11.6872462 L18.323368,14.3365436 C18.2933229,14.5900687 18.078337,14.7810846 17.8230659,14.7810846 L14.9843634,14.7810846 L14.9702411,23 L19.9007376,23 C21.6124099,23 23,21.6124201 23,19.9007603 L23,3.09929597 C22.9999437,1.38757987 21.6123537,0 19.900625,0 Z" id="Shape"></path>
            </g>
        </g>
    </g>
</svg>