<?xml version="1.0" encoding="UTF-8"?>
<svg width="11px" height="11px" viewBox="0 0 11 11" version="1.1" xmlns="http://www.w3.org/2000/svg" xmlns:xlink="http://www.w3.org/1999/xlink">
    <!-- Generator: Sketch 46.2 (44496) - http://www.bohemiancoding.com/sketch -->
    <title>logout</title>
    <desc>Created with Sketch.</desc>
    <defs></defs>
    <g id="Welcome" stroke="none" stroke-width="1" fill="none" fill-rule="evenodd">
        <g id="Dropdown" transform="translate(-1161.000000, -175.000000)" fill-rule="nonzero" fill="#ADB6BE">
            <g id="logout" transform="translate(1161.000000, 175.000000)">
                <path d="M2.13386001,6.12495573 L7.37499219,6.12495573 C7.72016317,6.12495573 8,5.84512823 8,5.49996875 C8,5.15480927 7.72016317,4.87498177 7.37499219,4.87498177 L2.13386001,4.87498177 L2.94195344,4.06691527 C3.18603983,3.82283702 3.18603983,3.42713693 2.94195344,3.18305869 C2.69790872,2.93898044 2.30215378,2.93898044 2.05806739,3.18305869 L0.183127289,5.05797796 C0.168502106,5.07260265 0.1546686,5.08793567 0.141585103,5.10393533 C0.135876698,5.11089352 0.130918303,5.11826837 0.125543236,5.12539322 C0.11866815,5.1345597 0.111584728,5.14351784 0.105209648,5.15305931 C0.0993762422,5.16176746 0.0943345125,5.17080894 0.0890011125,5.17972542 C0.0838760485,5.18830858 0.0785009813,5.1966834 0.0737925891,5.20551655 C0.0688758609,5.21468303 0.0647508094,5.2240995 0.0603340875,5.23343264 C0.0560007,5.24255745 0.0514589766,5.25155726 0.0475839281,5.2608904 C0.0438338813,5.27001521 0.0407505094,5.27930668 0.0374588016,5.28855649 C0.0338337563,5.29855628 0.030000375,5.30843107 0.0269170031,5.3186392 C0.0241253016,5.327889 0.0220836094,5.33726381 0.0197502469,5.34663861 C0.0171252141,5.3570134 0.0142085109,5.36734651 0.0121251516,5.37792963 C0.010000125,5.38872107 0.00870844219,5.39963751 0.00716675625,5.41051228 C0.00583340625,5.41980375 0.00404171719,5.42897023 0.00312503906,5.4383867 C0.00112501406,5.45855295 8.3334375e-05,5.47884419 4.16671875e-05,5.49909377 C8.3334375e-05,5.52121831 0.00112501406,5.54146789 0.00312503906,5.5616758 C0.00404171719,5.57096727 0.00579173906,5.58000875 0.00708342188,5.58921689 C0.008666775,5.60021666 0.00995845781,5.61121643 0.0121251516,5.62213287 C0.0142085109,5.63263265 0.0170835469,5.64279911 0.0197085797,5.65309056 C0.0220836094,5.6625487 0.0241669688,5.67209016 0.0270003375,5.68146497 C0.0300420422,5.69150643 0.0338337563,5.70121456 0.0373338,5.71104769 C0.0407088422,5.72046416 0.0437922141,5.72992229 0.0476255953,5.7391721 C0.0514173094,5.74833858 0.0558756984,5.75713006 0.0601257516,5.76608821 C0.0646258078,5.77562967 0.0688758609,5.78525447 0.0738759234,5.79462928 C0.0784593141,5.80317077 0.0836677125,5.8112956 0.0886261078,5.81958709 C0.0940845094,5.82879523 0.0992929078,5.83808671 0.105292983,5.84704485 C0.111376392,5.85616966 0.118168144,5.86471115 0.124709892,5.87350264 C0.13037663,5.88104414 0.135626695,5.88883565 0.141668438,5.89616883 C0.154126927,5.91133518 0.167335425,5.92587654 0.181127264,5.93983459 C0.181571714,5.94027902 0.807204535,6.56597432 2.05802573,7.81692048 C2.18011058,7.93895961 2.34002925,8 2.49998958,8 C2.65990825,7.99995833 2.81991025,7.93895961 2.94191177,7.81696215 C3.18599816,7.5728839 3.18599816,7.17718381 2.94195344,6.93310556 L2.13386001,6.12495573 Z" id="XMLID_7_" transform="translate(4.000000, 5.500000) rotate(-180.000000) translate(-4.000000, -5.500000) "></path>
                <path d="M10.3863636,0 L2.61363636,0 C2.27474545,0 2,0.273613801 2,0.611108848 L2,3.05554424 C2,3.39303929 2.27474545,3.66665309 2.61363636,3.66665309 C2.95252727,3.66665309 3.22727273,3.39303929 3.22727273,3.05554424 L3.22727273,1.2222177 L9.77272727,1.2222177 L9.77272727,9.7777823 L3.22727273,9.7777823 L3.22727273,7.94441502 C3.22727273,7.60691997 2.95252727,7.33330617 2.61363636,7.33330617 C2.27474545,7.33330617 2,7.60691997 2,7.94441502 L2,10.3888912 C2,10.7263862 2.27474545,11 2.61363636,11 L10.3863636,11 C10.7252545,11 11,10.7263862 11,10.3888912 L11,0.611108848 C11,0.273613801 10.7252545,0 10.3863636,0 Z" id="XMLID_8_"></path>
            </g>
        </g>
    </g>
</svg>