<?xml version="1.0" encoding="UTF-8"?>
<svg width="18px" height="18px" viewBox="0 0 18 18" version="1.1" xmlns="http://www.w3.org/2000/svg" xmlns:xlink="http://www.w3.org/1999/xlink">
    <!-- Generator: Sketch 46.2 (44496) - http://www.bohemiancoding.com/sketch -->
    <title>my feed</title>
    <desc>Created with Sketch.</desc>
    <defs></defs>
    <g id="Welcome" stroke="none" stroke-width="1" fill="none" fill-rule="evenodd">
        <g id="Dropdown" transform="translate(-154.000000, -25.000000)" fill="#6B6B6B">
            <g id="Header">
                <g id="my-feed" transform="translate(154.000000, 25.000000)">
                    <g id="table-icon">
                        <path d="M2.64705882,0 L15.3529412,0 C16.8148714,-2.68552225e-16 18,1.1851286 18,2.64705882 L18,2.64705882 C18,4.10898904 16.8148714,5.29411765 15.3529412,5.29411765 L2.64705882,5.29411765 C1.1851286,5.29411765 1.79034816e-16,4.10898904 0,2.64705882 L0,2.64705882 L0,2.64705882 C-1.79034816e-16,1.1851286 1.1851286,2.68552225e-16 2.64705882,0 L2.64705882,0 Z M2.58823529,1.05882353 L2.58823529,1.05882353 C1.71107716,1.05882353 1,1.76990069 1,2.64705882 C1,3.52421696 1.71107716,4.23529412 2.58823529,4.23529412 L2.58823529,4.23529412 L15.4117647,4.23529412 C16.2889228,4.23529412 17,3.52421696 17,2.64705882 L17,2.64705882 C17,1.76990069 16.2889228,1.05882353 15.4117647,1.05882353 L15.4117647,1.05882353 L2.58823529,1.05882353 Z" id="Combined-Shape"></path>
                    </g>
                    <g id="table-icon-copy" transform="translate(0.000000, 6.352941)">
                        <path d="M2.64705882,0 L15.3529412,0 C16.8148714,-2.68552225e-16 18,1.1851286 18,2.64705882 L18,2.64705882 C18,4.10898904 16.8148714,5.29411765 15.3529412,5.29411765 L2.64705882,5.29411765 C1.1851286,5.29411765 1.79034816e-16,4.10898904 0,2.64705882 L0,2.64705882 L0,2.64705882 C-1.79034816e-16,1.1851286 1.1851286,2.68552225e-16 2.64705882,0 L2.64705882,0 Z M2.58823529,1.05882353 C1.71107716,1.05882353 1,1.76990069 1,2.64705882 C1,3.52421696 1.71107716,4.23529412 2.58823529,4.23529412 L15.4117647,4.23529412 C16.2889228,4.23529412 17,3.52421696 17,2.64705882 L17,2.64705882 C17,1.76990069 16.2889228,1.05882353 15.4117647,1.05882353 L15.4117647,1.05882353 L2.58823529,1.05882353 Z" id="Combined-Shape"></path>
                    </g>
                    <g id="table-icon-copy-2" transform="translate(0.000000, 12.705882)">
                        <path d="M2.64705882,0 L15.3529412,0 C16.8148714,-2.68552225e-16 18,1.1851286 18,2.64705882 L18,2.64705882 C18,4.10898904 16.8148714,5.29411765 15.3529412,5.29411765 L2.64705882,5.29411765 C1.1851286,5.29411765 1.79034816e-16,4.10898904 0,2.64705882 L0,2.64705882 L0,2.64705882 C-1.79034816e-16,1.1851286 1.1851286,2.68552225e-16 2.64705882,0 L2.64705882,0 Z M2.58823529,1.05882353 C1.71107716,1.05882353 1,1.76990069 1,2.64705882 C1,3.52421696 1.71107716,4.23529412 2.58823529,4.23529412 L15.4117647,4.23529412 C16.2889228,4.23529412 17,3.52421696 17,2.64705882 L17,2.64705882 C17,1.76990069 16.2889228,1.05882353 15.4117647,1.05882353 L15.4117647,1.05882353 L2.58823529,1.05882353 Z" id="Combined-Shape"></path>
                    </g>
                </g>
            </g>
        </g>
    </g>
</svg>