<?xml version="1.0" encoding="UTF-8"?>
<svg width="12px" height="12px" viewBox="0 0 12 12" version="1.1" xmlns="http://www.w3.org/2000/svg" xmlns:xlink="http://www.w3.org/1999/xlink">
    <!-- Generator: Sketch 46.2 (44496) - http://www.bohemiancoding.com/sketch -->
    <title>Oval 3 Copy</title>
    <desc>Created with Sketch.</desc>
    <defs></defs>
    <g id="Welcome" stroke="none" stroke-width="1" fill="none" fill-rule="evenodd">
        <g id="Dropdown" transform="translate(-1161.000000, -121.000000)">
            <g id="Oval-3" transform="translate(1161.000000, 121.000000)">
                <circle fill="#ADB6BE" fill-rule="evenodd" cx="6" cy="6" r="6"></circle>
                <path d="M4.36127941,8.40166875 L2.71916776,9.29948816 C2.62280507,9.35215413 2.53620325,9.41689371 2.4556241,9.48746195 C3.41302068,10.2966027 4.64891374,10.7847517 5.99923751,10.7847517 C7.33959272,10.7847517 8.56759401,10.3038885 9.52229077,9.50578054 C9.4342352,9.43125716 9.33870323,9.36422775 9.23278734,9.31135362 L7.47437588,8.43018747 C7.24717591,8.31632074 7.10367026,8.08359129 7.10367026,7.82900443 L7.10367026,7.1374774 C7.15309768,7.08106445 7.20958615,7.00862272 7.27002051,6.92306655 C7.50968117,6.58375617 7.69098426,6.21051476 7.81662958,5.81895475 C8.04216812,5.74921919 8.20831069,5.54042881 8.20831069,5.29229509 L8.20831069,4.55413891 C8.20831069,4.39176952 8.13624635,4.24667791 8.02430779,4.14509296 L8.02430779,3.0780347 C8.02430779,3.0780347 8.24299296,1.41749552 5.99944519,1.41749552 C3.75589741,1.41749552 3.97458258,3.0780347 3.97458258,3.0780347 L3.97458258,4.14509296 C3.86243634,4.24667791 3.79057968,4.39176952 3.79057968,4.55413891 L3.79057968,5.29229509 C3.79057968,5.48672202 3.89254968,5.65783437 4.04519317,5.75671316 C4.22919607,6.55960893 4.71100953,7.1374774 4.71100953,7.1374774 L4.71100953,7.81193483 C4.71080185,8.05757056 4.57664173,8.28384686 4.36127941,8.40166875 Z" id="Shape" fill="#FFFFFF" fill-rule="nonzero"></path>
            </g>
        </g>
    </g>
</svg>