<?xml version="1.0" encoding="UTF-8"?>
<svg width="18px" height="22px" viewBox="0 0 18 22" version="1.1" xmlns="http://www.w3.org/2000/svg" xmlns:xlink="http://www.w3.org/1999/xlink">
    <!-- Generator: Sketch 46.2 (44496) - http://www.bohemiancoding.com/sketch -->
    <title>files board icon</title>
    <desc>Created with Sketch.</desc>
    <defs></defs>
    <g id="Welcome" stroke="none" stroke-width="1" fill="none" fill-rule="evenodd">
        <g id="Dropdown" transform="translate(-590.000000, -23.000000)" fill="#007AFF">
            <g id="Header">
                <g id="files-board-icon" transform="translate(590.000000, 23.000000)">
                    <path d="M1.40283401,0.949852942 C1.14518016,0.949852942 0.935222672,1.16309493 0.935222672,1.42477941 L0.935222672,20.4218383 C0.935222672,20.6835227 1.14518016,20.8967647 1.40283401,20.8967647 L16.3663968,20.8967647 C16.6240506,20.8967647 16.8340081,20.6835227 16.8340081,20.4218383 L16.8340081,6.37066368 L11.4966923,0.949852942 L1.40283401,0.949852942 Z M16.3663968,21.8466177 L1.40283401,21.8466177 C0.629404858,21.8466177 0,21.2073666 0,20.4218383 L0,1.42477941 C0,0.63925103 0.629404858,0 1.40283401,0 L11.6902834,0 C11.8142004,0 11.9334413,0.0498672795 12.0208846,0.139153456 L17.6322206,5.83827111 C17.7201316,5.92708236 17.7692308,6.04818861 17.7692308,6.17404413 L17.7692308,20.4218383 C17.7692308,21.2073666 17.1398259,21.8466177 16.3663968,21.8466177 L16.3663968,21.8466177 Z" id="Fill-1"></path>
                    <path d="M17.3016194,6.6489706 L11.6902834,6.6489706 C11.4321619,6.6489706 11.2226721,6.43620354 11.2226721,6.17404413 L11.2226721,0.949852942 L12.1578947,0.949852942 L12.1578947,5.69911765 L17.3016194,5.69911765 L17.3016194,6.6489706 Z" id="Fill-3"></path>
                    <path d="M8.88461538,8.07375001 L3.27327935,8.07375001 C3.01515789,8.07375001 2.80566802,7.86098295 2.80566802,7.59882354 C2.80566802,7.33666413 3.01515789,7.12389707 3.27327935,7.12389707 L8.88461538,7.12389707 C9.14273684,7.12389707 9.35222672,7.33666413 9.35222672,7.59882354 C9.35222672,7.86098295 9.14273684,8.07375001 8.88461538,8.07375001" id="Fill-5"></path>
                    <path d="M14.4959514,10.9233088 L3.27327935,10.9233088 C3.01515789,10.9233088 2.80566802,10.7105418 2.80566802,10.4483824 C2.80566802,10.186223 3.01515789,9.9734559 3.27327935,9.9734559 L14.4959514,9.9734559 C14.7540729,9.9734559 14.9635628,10.186223 14.9635628,10.4483824 C14.9635628,10.7105418 14.7540729,10.9233088 14.4959514,10.9233088" id="Fill-7"></path>
                    <path d="M14.4959514,13.7728677 L3.27327935,13.7728677 C3.01515789,13.7728677 2.80566802,13.5601006 2.80566802,13.2979412 C2.80566802,13.0357818 3.01515789,12.8230147 3.27327935,12.8230147 L14.4959514,12.8230147 C14.7540729,12.8230147 14.9635628,13.0357818 14.9635628,13.2979412 C14.9635628,13.5601006 14.7540729,13.7728677 14.4959514,13.7728677" id="Fill-9"></path>
                    <path d="M14.4959514,16.6224265 L3.27327935,16.6224265 C3.01515789,16.6224265 2.80566802,16.4096594 2.80566802,16.1475 C2.80566802,15.8853406 3.01515789,15.6725735 3.27327935,15.6725735 L14.4959514,15.6725735 C14.7540729,15.6725735 14.9635628,15.8853406 14.9635628,16.1475 C14.9635628,16.4096594 14.7540729,16.6224265 14.4959514,16.6224265" id="Fill-11"></path>
                </g>
            </g>
        </g>
    </g>
</svg>