<?xml version="1.0" encoding="UTF-8"?>
<svg width="13px" height="8px" viewBox="0 0 13 8" version="1.1" xmlns="http://www.w3.org/2000/svg" xmlns:xlink="http://www.w3.org/1999/xlink">
    <!-- Generator: Sketch 46.2 (44496) - http://www.bohemiancoding.com/sketch -->
    <title>Path 3</title>
    <desc>Created with Sketch.</desc>
    <defs></defs>
    <g id="Welcome" stroke="none" stroke-width="1" fill="none" fill-rule="evenodd">
        <g id="Dropdown" transform="translate(-1247.000000, -486.000000)" fill="#D3D3D3">
            <g id="Group-2" transform="translate(175.000000, 215.000000)">
                <g id="Group" transform="translate(0.000000, 260.000000)">
                    <g id="Votes" transform="translate(1065.000000, 11.000000)">
                        <path d="M8.64682168,7.98255846 L19.276253,7.98255846 L19.276253,7.98255846 C19.6904666,7.98255846 20.026253,7.64677202 20.026253,7.23255846 C20.026253,7.05093105 19.9603433,6.87547439 19.8407619,6.73876733 L14.5121659,0.64704186 L14.5121659,0.64704186 C14.2394526,0.335272192 13.7656355,0.303610757 13.4538659,0.576324066 C13.4282587,0.598723382 13.4042052,0.622839127 13.3818723,0.648504211 L8.08103694,6.74022968 L8.08103694,6.74022968 C7.80913126,7.05270397 7.84201862,7.52643753 8.15449291,7.7983432 C8.29100489,7.9171318 8.46586243,7.98255846 8.64682168,7.98255846 Z" id="Path-3"></path>
                    </g>
                </g>
            </g>
        </g>
    </g>
</svg>